<?xml version="1.0" encoding="utf-8"?>
<!-- Generator: Adobe Illustrator 25.3.1, SVG Export Plug-In . SVG Version: 6.00 Build 0)  -->
<svg version="1.1" id="Capa_1" xmlns="http://www.w3.org/2000/svg" xmlns:xlink="http://www.w3.org/1999/xlink" x="0px" y="0px"
	 viewBox="0 0 584.5 53.3" style="enable-background:new 0 0 584.5 53.3;" xml:space="preserve">
<style type="text/css">
	.st0{fill:#00008B;}
</style>
<g>
	<g>
		<path class="st0" d="M36.7,2.8v32c0,3,0,6,0,9c0,3,0,5.9,0.1,8.7h-15V33.2h-5.4v5.4c0,2.3,0,4.6,0,7s0,4.6,0.1,6.8h-15V2.8h15
			L16.4,22h5.3c0-3.2,0-6.4,0.1-9.6c0-3.2,0.1-6.4,0.1-9.6H36.7z"/>
		<path class="st0" d="M69.6,41.3l0.1,11.2H37.9V2.9h31.8l-0.1,11.2H52.8v8H65L65,33.3H52.8v8H69.6z"/>
		<path class="st0" d="M102.1,2.7c0,1-0.1,1.9,0,2.9c0,1,0,1.9,0,2.8v5.6H94c0,6.4,0,12.9,0,19.3c0,6.4,0,12.8,0,19.3h-15V13.9h-8.1
			V8.4c0-0.9,0-1.8,0-2.8c0-1,0-1.9,0-2.9H102.1z"/>
		<path class="st0" d="M138.6,41.2v11.2h-35.3v-9.1l16.1-29.4h-16.1V8.3c0-0.9,0-1.8,0-2.8c0-1,0-1.9,0-2.9h35.2v11.1l-14.3,24.9
			l0.1-0.1v2.6H138.6z"/>
		<path class="st0" d="M175,2.9v32c0,3,0,6,0,9c0,3,0,5.9,0.1,8.7h-15l0.1-27.6l-5.5-6.5c0,1,0,2.3,0,4.1c0,1.8,0,3.8,0,6
			c0,2.2,0,4.5,0,6.9c0,2.4,0,4.7,0,6.9c0,2.2,0,4.2,0,6c0,1.8,0,3.2,0,4.1h-15V2.9h15l5.3,5.4c0-1.3,0-2.1,0-2.3c0-0.2,0-0.3,0-0.4
			c0,0,0-0.1,0-0.4c0-0.2,0-1,0-2.3H175z"/>
		<path class="st0" d="M207.9,41.3l0.1,11.2h-31.8V2.9h31.8l-0.1,11.2h-16.8v8h12.2l0.1,11.2h-12.2v8H207.9z"/>
		<path class="st0" d="M244.4,33.1v5.4c0,2.3,0,4.6,0,7s0,4.6,0.1,6.8h-15V33.1h-5.4v5.4c0,2.3,0,4.6,0,7s0,4.6,0.1,6.8h-15V2.6
			h28.9l6.3,5.8v9.4c0,0.7,0,1.3,0,2c0,0.7,0,1.3-0.1,2l-6.1,5.6L244.4,33.1z M229.3,21.9c0-1.4,0-2.7,0.1-4c0-1.3,0.1-2.6,0.1-4
			h-5.4v8H229.3z"/>
		<path class="st0" d="M296.1,34.6c0,1-0.1,2.1-0.1,3.5c0,1.4,0,2.5,0,3.4v5.3l-6.3,5.8h-22.6l-6.3-5.8V8.7l6.4-5.8h22.5l6.3,5.8
			c0,1-0.1,1.9-0.1,2.7c0,0.9,0,1.8,0,2.7v8.2H281l0.1-8.1h-5.3c0,4.6,0,9.1,0,13.6c0,4.5,0,9,0,13.6h5.4v-6.8H296.1z"/>
		<path class="st0" d="M333.7,8.7v38.2l-6.3,5.8h-23.9l-6.3-5.8V8.7l6.4-5.8h23.8L333.7,8.7z M318.8,41.4V14.2h-6.6
			c0,4.6,0,9.1,0,13.6c0,4.5,0,9,0,13.6H318.8z"/>
		<path class="st0" d="M372.1,2.9l0.1,49.7h-14.9l-0.1-30.1l-3.6,5.3l-3.7-5.3c0,2.1,0,4.5,0,7.1s0,5.3,0,8s0,5.4,0,8
			c0,2.6,0,4.9,0,7.1h-15V2.9h14.9l3.7,7l4-7H372.1z"/>
		<path class="st0" d="M408.5,8.6v22.8l-6.4,5.8h-13.8v5.4c0,1.2,0,2.1,0,2.9c0,0.8,0,1.5,0,2.2c0,0.7,0,1.4,0,2.2
			c0,0.7,0,1.6,0,2.7h-15V2.9h28.8L408.5,8.6z M393.4,26c0-0.7,0-1.5,0-2.6c0-1.1,0-2.2,0-3.3c0-1.2,0-2.3,0-3.3s0-2,0-2.6h-5.3V26
			H393.4z"/>
		<path class="st0" d="M444.8,2.8l-0.1,43.9l-6.3,5.8H416l-6.3-5.8V2.8h15l-0.1,38.4h5.3c0-6.4,0-12.9,0-19.2c0-6.4,0-12.8,0-19.2
			H444.8z"/>
		<path class="st0" d="M477.2,2.7c0,1-0.1,1.9,0,2.9c0,1,0,1.9,0,2.8v5.6h-8.1c0,6.4,0,12.9,0,19.3c0,6.4,0,12.8,0,19.3h-15V13.9
			h-8.1V8.4c0-0.9,0-1.8,0-2.8c0-1,0-1.9,0-2.9H477.2z"/>
		<path class="st0" d="M510.1,41.3l0.1,11.2h-31.8V2.9h31.8l-0.1,11.2h-16.8v8h12.2l0.1,11.2h-12.2v8H510.1z"/>
		<path class="st0" d="M546.6,33.1v5.4c0,2.3,0,4.6,0,7s0,4.6,0.1,6.8h-15V33.1h-5.4v5.4c0,2.3,0,4.6,0,7s0,4.6,0.1,6.8h-15V2.6
			h28.9l6.3,5.8v9.4c0,0.7,0,1.3,0,2c0,0.7,0,1.3-0.1,2l-6.1,5.6L546.6,33.1z M531.5,21.9c0-1.4,0-2.7,0.1-4c0-1.3,0.1-2.6,0.1-4
			h-5.4v8H531.5z"/>
		<path class="st0" d="M583.1,27.8c0,1.6-0.1,3.2-0.1,4.8s0,3.2,0,4.8v9.4l-6.3,5.8h-22.6l-6.3-5.8V35.7h14.9v5.7h5.4v-8.8H556
			l-8.1-5.8c0-1.5,0-2.9,0-4.2c0-1.2,0-2.7,0-4.4V8.7l6.4-5.8h22.5l6.3,5.8v10.9h-14.9v-5.5h-5.3v8.4h11.9L583.1,27.8z"/>
	</g>
</g>
</svg>
